<svg width="45" height="35" viewBox="0 0 45 35" fill="none" xmlns="http://www.w3.org/2000/svg">
<path id="Vector" d="M43.8975 19.8478L38.9545 8.0136C38.3048 6.1222 36.9394 4.5612 35.1788 3.654C34.9073 1.5946 33.158 0 31.0163 0C28.6861 0 26.7975 1.8802 26.7975 4.2C26.7975 4.2966 26.8144 4.3876 26.8256 4.48C25.0481 5.8912 23.9062 8.0612 23.9062 10.5C23.9062 10.815 23.9062 11.1874 23.9062 11.5878C23.4914 11.3484 23.0147 11.2 22.5 11.2C21.9853 11.2 21.5086 11.3484 21.0938 11.5878C21.0938 11.1874 21.0938 10.815 21.0938 10.5C21.0938 8.0934 19.9842 5.9472 18.2475 4.5346C18.2573 4.4226 18.2812 4.3148 18.2812 4.2C18.2812 1.8802 16.3927 0 14.0625 0C11.932 0 10.1897 1.5764 9.90281 3.619C8.10422 4.5192 6.70359 6.0928 6.04547 8.0136L1.1025 19.8478C0.403594 21.2506 0 22.827 0 24.5C0 30.2988 4.72219 35 10.5469 35C15.3858 35 19.4527 31.752 20.6944 27.3308C21.1852 27.7424 21.8095 28 22.5 28C23.1905 28 23.8148 27.7424 24.3056 27.3308C25.5473 31.752 29.6142 35 34.4531 35C40.2778 35 45 30.2988 45 24.5C45 22.827 44.5964 21.2506 43.8975 19.8478ZM14.0625 1.4C15.4111 1.4 16.5333 2.3506 16.8047 3.6134C15.7669 3.0982 14.5997 2.8 13.3594 2.8C12.7223 2.8 12.1134 2.8994 11.5214 3.0436C11.9616 2.0776 12.9277 1.4 14.0625 1.4ZM10.5469 33.6C5.50688 33.6 1.40625 29.5176 1.40625 24.5C1.40625 23.3366 1.65516 22.1578 2.14594 20.9944L2.37516 20.4456C3.87703 17.4594 6.97078 15.4 10.5469 15.4C15.5869 15.4 19.6875 19.4824 19.6875 24.5C19.6875 29.5176 15.5869 33.6 10.5469 33.6ZM19.6875 19.2766C17.8664 16.1266 14.4591 14 10.5469 14C8.14641 14 5.94141 14.8078 4.16953 16.1518L7.34344 8.5512L7.36172 8.5092L7.37578 8.4658C8.25187 5.9136 10.6552 4.2 13.3594 4.2C16.8483 4.2 19.6875 7.0266 19.6875 10.5V19.2766ZM22.5 26.6C21.7252 26.6 21.0938 25.9714 21.0938 25.2C21.0938 24.4286 21.7252 23.8 22.5 23.8C23.2748 23.8 23.9062 24.4286 23.9062 25.2C23.9062 25.9714 23.2748 26.6 22.5 26.6ZM23.9062 22.7878C23.4914 22.5484 23.0147 22.4 22.5 22.4C21.9853 22.4 21.5086 22.5484 21.0938 22.7878C21.0938 20.2412 21.0938 16.7944 21.0938 14C21.0938 13.2286 21.7252 12.6 22.5 12.6C23.2748 12.6 23.9062 13.2286 23.9062 14C23.9062 16.7944 23.9062 20.2412 23.9062 22.7878ZM31.0163 1.4C32.1623 1.4 33.1467 2.0888 33.5841 3.0702C32.9611 2.9078 32.3156 2.8 31.6406 2.8C30.4355 2.8 29.2978 3.0828 28.2811 3.5728C28.568 2.331 29.6817 1.4 31.0163 1.4ZM25.3125 10.5C25.3125 7.0266 28.1517 4.2 31.6406 4.2C34.3448 4.2 36.7481 5.9136 37.6242 8.4658L37.6383 8.5092L37.6566 8.5512L40.8305 16.1518C39.0586 14.8078 36.8536 14 34.4531 14C30.5409 14 27.1336 16.1266 25.3125 19.2766V10.5ZM34.4531 33.6C29.4131 33.6 25.3125 29.5176 25.3125 24.5C25.3125 19.4824 29.4131 15.4 34.4531 15.4C38.0292 15.4 41.123 17.4594 42.6248 20.4456L42.8555 21C43.3448 22.1578 43.5938 23.3366 43.5938 24.5C43.5938 29.5176 39.4931 33.6 34.4531 33.6ZM10.5469 16.8C6.27469 16.8 2.8125 20.2468 2.8125 24.5C2.8125 28.7532 6.27469 32.2 10.5469 32.2C14.8191 32.2 18.2812 28.7532 18.2812 24.5C18.2812 20.2468 14.8191 16.8 10.5469 16.8ZM10.5469 30.8C7.05797 30.8 4.21875 27.9734 4.21875 24.5C4.21875 21.0266 7.05797 18.2 10.5469 18.2C14.0358 18.2 16.875 21.0266 16.875 24.5C16.875 27.9734 14.0358 30.8 10.5469 30.8ZM34.4531 16.8C30.1809 16.8 26.7188 20.2468 26.7188 24.5C26.7188 28.7532 30.1809 32.2 34.4531 32.2C38.7253 32.2 42.1875 28.7532 42.1875 24.5C42.1875 20.2468 38.7253 16.8 34.4531 16.8ZM34.4531 30.8C30.9642 30.8 28.125 27.9734 28.125 24.5C28.125 21.0266 30.9642 18.2 34.4531 18.2C37.942 18.2 40.7812 21.0266 40.7812 24.5C40.7812 27.9734 37.942 30.8 34.4531 30.8Z" fill="#D4080D" fill-opacity="0.3"/>
</svg>
