<svg width="29" height="29" viewBox="0 0 29 29" fill="none" xmlns="http://www.w3.org/2000/svg">
<g id="explore-find-glass_svgrepo.com">
<g id="Group">
<path id="Vector" d="M24.6953 12.4609C24.6953 5.70937 19.2125 0.226562 12.4609 0.226562C5.70937 0.226562 0.226562 5.70937 0.226562 12.4609C0.226562 19.2125 5.70937 24.6953 12.4609 24.6953C15.5195 24.6953 18.3062 23.5625 20.4359 21.7273L26.1906 27.482L27.482 26.1906L21.7273 20.4359C23.5625 18.3062 24.6953 15.5195 24.6953 12.4609ZM12.4609 22.8828C6.70625 22.8828 2.03906 18.2156 2.03906 12.4609C2.03906 6.70625 6.70625 2.03906 12.4609 2.03906C18.2156 2.03906 22.8828 6.70625 22.8828 12.4609C22.8828 18.2156 18.2156 22.8828 12.4609 22.8828Z" fill="#DB6C39" fill-opacity="0.3"/>
<path id="Vector_2" d="M5.80005 7.00078L7.20474 8.15625C8.49614 6.57031 10.4219 5.66406 12.461 5.66406V3.85156C9.87817 3.85156 7.45396 5.00703 5.80005 7.00078Z" fill="#DB6C39" fill-opacity="0.3"/>
<path id="Vector_3" d="M3.85156 12.461H5.66406C5.66406 11.9852 5.70937 11.5321 5.8 11.0789L4.03281 10.7164C3.91953 11.2828 3.85156 11.8719 3.85156 12.461Z" fill="#DB6C39" fill-opacity="0.3"/>
</g>
</g>
</svg>
