<svg width="39" height="39" viewBox="0 0 39 39" fill="none" xmlns="http://www.w3.org/2000/svg">
<g id="explore_svgrepo.com" clip-path="url(#clip0_1_17)">
<path id="Vector" d="M10.4812 27.976L23.4503 21.7279L28.2928 10.166L16.7293 15.0085L10.4812 27.976ZM21.4353 20.8943L13.962 24.4953L17.563 17.0203L21.4353 20.8943ZM19.5 1.95001C16.0289 1.95001 12.6358 2.9793 9.7497 4.90772C6.86362 6.83614 4.61419 9.57707 3.28587 12.7839C1.95756 15.9908 1.61001 19.5195 2.28718 22.9238C2.96435 26.3282 4.63582 29.4553 7.09024 31.9097C9.54465 34.3641 12.6718 36.0356 16.0761 36.7128C19.4805 37.39 23.0092 37.0424 26.2161 35.7141C29.4229 34.3858 32.1638 32.1364 34.0923 29.2503C36.0207 26.3642 37.05 22.9711 37.05 19.5C37.0448 14.847 35.1941 10.3861 31.904 7.09599C28.6138 3.80584 24.1529 1.95517 19.5 1.95001ZM19.5 35.425C16.3503 35.425 13.2714 34.491 10.6525 32.7412C8.03365 30.9913 5.9925 28.5042 4.78718 25.5942C3.58185 22.6843 3.26648 19.4823 3.88095 16.3932C4.49542 13.3041 6.01213 10.4665 8.23928 8.23934C10.4664 6.01219 13.304 4.49548 16.3931 3.88101C19.4823 3.26654 22.6843 3.58191 25.5942 4.78723C28.5041 5.99256 30.9912 8.0337 32.7411 10.6526C34.491 13.2714 35.425 16.3503 35.425 19.5C35.4207 23.7223 33.7415 27.7704 30.7559 30.7559C27.7703 33.7415 23.7222 35.4207 19.5 35.425Z" fill="#197B67" fill-opacity="0.3"/>
</g>
<defs>
<clipPath id="clip0_1_17">
<rect width="39" height="39" fill="white"/>
</clipPath>
</defs>
</svg>
