<svg width="25" height="24" viewBox="0 0 25 24" fill="none" xmlns="http://www.w3.org/2000/svg">
<g id="interface-ui-loading-wait-buffering-circular_svgrepo.com">
<g id="Group">
<path id="Vector" d="M12.5 1.5C12.05 1.5 11.75 1.8 11.75 2.25V6C11.75 6.45 12.05 6.75 12.5 6.75C12.95 6.75 13.25 6.45 13.25 6V2.25C13.25 1.8 12.95 1.5 12.5 1.5Z" fill="white"/>
<path id="Vector_2" d="M6.12498 4.57498C5.82498 4.27498 5.37498 4.27498 5.07498 4.57498C4.77498 4.87498 4.77498 5.32498 5.07498 5.62498L7.69998 8.24998C7.84998 8.39998 8.07498 8.47498 8.22498 8.47498C8.37498 8.47498 8.59998 8.39998 8.74998 8.24998C9.04998 7.94998 9.04998 7.49998 8.74998 7.19998L6.12498 4.57498Z" fill="white"/>
<path id="Vector_3" d="M7.25 12C7.25 11.55 6.95 11.25 6.5 11.25H2.75C2.3 11.25 2 11.55 2 12C2 12.45 2.3 12.75 2.75 12.75H6.5C6.95 12.75 7.25 12.45 7.25 12Z" fill="white"/>
<path id="Vector_4" d="M7.69998 15.675L5.07498 18.3C4.77498 18.6 4.77498 19.05 5.07498 19.35C5.22498 19.5 5.44998 19.575 5.59998 19.575C5.74998 19.575 5.97498 19.5 6.12498 19.35L8.74998 16.725C9.04998 16.425 9.04998 15.975 8.74998 15.675C8.44998 15.375 7.99998 15.45 7.69998 15.675Z" fill="white"/>
<path id="Vector_5" d="M12.5 17.25C12.05 17.25 11.75 17.55 11.75 18V21.75C11.75 22.2 12.05 22.5 12.5 22.5C12.95 22.5 13.25 22.2 13.25 21.75V18C13.25 17.55 12.95 17.25 12.5 17.25Z" fill="white"/>
<path id="Vector_6" d="M17.3 15.675C17 15.375 16.55 15.375 16.25 15.675C15.95 15.975 15.95 16.425 16.25 16.725L18.875 19.35C19.025 19.5 19.25 19.575 19.4 19.575C19.55 19.575 19.775 19.5 19.925 19.35C20.225 19.05 20.225 18.6 19.925 18.3L17.3 15.675Z" fill="white"/>
<path id="Vector_7" d="M22.25 11.25H18.5C18.05 11.25 17.75 11.55 17.75 12C17.75 12.45 18.05 12.75 18.5 12.75H22.25C22.7 12.75 23 12.45 23 12C23 11.55 22.7 11.25 22.25 11.25Z" fill="white"/>
<path id="Vector_8" d="M16.775 8.47498C17 8.47498 17.15 8.39998 17.3 8.24998L19.925 5.62498C20.225 5.32498 20.225 4.87498 19.925 4.57498C19.625 4.27498 19.175 4.27498 18.875 4.57498L16.25 7.19998C15.95 7.49998 15.95 7.94998 16.25 8.24998C16.325 8.39998 16.55 8.47498 16.775 8.47498Z" fill="white"/>
</g>
</g>
</svg>
