<svg width="1281" height="856" viewBox="0 0 1281 856" fill="none" xmlns="http://www.w3.org/2000/svg">
<mask id="mask0_2009_5" style="mask-type:alpha" maskUnits="userSpaceOnUse" x="0" y="0" width="1281" height="856">
<mask id="path-1-inside-1_2009_5" fill="white">
<path fill-rule="evenodd" clip-rule="evenodd" d="M226.26 0C234.473 0 240 9.8436 240 18.0572V18.0572V69.9428C240 88.1998 254.8 103 273.057 103H305.34C310.395 103 314 108.002 314 113.057V113.057V164.943C314 183.2 328.8 198 347.057 198H358.849C368.376 198 375 211.53 375 221.057V221.057V256.943C375 275.2 389.8 290 408.057 290H871.943C890.2 290 905 275.2 905 256.943V221.057V221.057C905 211.53 911.624 198 921.151 198H932.943C951.2 198 966 183.2 966 164.943V113.057V113.057C966 108.002 969.605 103 974.66 103H1007.94C1026.2 103 1041 88.1998 1041 69.9428V18.0572V18.0572C1041 9.84358 1046.53 0 1054.74 0H1242.97C1263.95 0 1280.97 17.0132 1280.97 38V718C1280.97 738.987 1263.95 756 1242.97 756H1010C990.118 756 974 772.118 974 792V817.355C974 838.342 956.987 855.355 936 855.355H369C348.013 855.355 331 838.342 331 817.355V792C331 772.118 314.882 756 295 756H26V756C15.4807 756 0 748.564 0 738.045V38C0 17.0132 17.0132 0 38 0H226.26Z"/>
</mask>
<path d="M241 69.9428V18.0572H239V69.9428H241ZM273.057 102C255.352 102 241 87.6475 241 69.9428H239C239 88.7521 254.248 104 273.057 104V102ZM305.34 102H273.057V104H305.34V102ZM315 164.943V113.057H313V164.943H315ZM347.057 197C329.352 197 315 182.648 315 164.943H313C313 183.752 328.248 199 347.057 199V197ZM358.849 197H347.057V199H358.849V197ZM376 256.943V221.057H374V256.943H376ZM408.057 289C390.352 289 376 274.648 376 256.943H374C374 275.752 389.248 291 408.057 291V289ZM871.943 289H408.057V291H871.943V289ZM904 256.943C904 274.648 889.647 289 871.943 289V291C890.752 291 906 275.752 906 256.943H904ZM904 221.057V256.943H906V221.057H904ZM932.943 197H921.151V199H932.943V197ZM965 164.943C965 182.647 950.647 197 932.943 197V199C951.752 199 967 183.752 967 164.943H965ZM965 113.057V164.943H967V113.057H965ZM1007.94 102H974.66V104H1007.94V102ZM1040 69.9428C1040 87.6475 1025.65 102 1007.94 102V104C1026.75 104 1042 88.7521 1042 69.9428H1040ZM1040 18.0572V69.9428H1042V18.0572H1040ZM1242.97 -1H1054.74V1H1242.97V-1ZM1281.97 718V38H1279.97V718H1281.97ZM1010 757H1242.97V755H1010V757ZM975 792C975 772.67 990.67 757 1010 757V755C989.565 755 973 771.565 973 792H975ZM975 817.355V792H973V817.355H975ZM369 856.355H936V854.355H369V856.355ZM330 792V817.355H332V792H330ZM295 757C314.33 757 330 772.67 330 792H332C332 771.565 315.435 755 295 755V757ZM26 757H295V755H26V757ZM-1 38V738.045H1V38H-1ZM226.26 -1H38V1H226.26V-1ZM1 38C1 17.5655 17.5655 1 38 1V-1C16.4609 -1 -1 16.4609 -1 38H1ZM26 755C20.9399 755 14.6189 753.2 9.57735 750.114C4.50398 747.009 1 742.784 1 738.045H-1C-1 743.825 3.23638 748.578 8.53319 751.82C13.8618 755.082 20.5408 757 26 757V755ZM369 854.355C348.565 854.355 332 837.789 332 817.355H330C330 838.894 347.461 856.355 369 856.355V854.355ZM973 817.355C973 837.789 956.435 854.355 936 854.355V856.355C957.539 856.355 975 838.894 975 817.355H973ZM1279.97 718C1279.97 738.435 1263.4 755 1242.97 755V757C1264.51 757 1281.97 739.539 1281.97 718H1279.97ZM241 18.0572C241 13.7482 239.557 9.03554 237.033 5.38026C234.509 1.72562 230.803 -1 226.26 -1V1C229.93 1 233.094 3.19618 235.387 6.51674C237.68 9.83666 239 14.1526 239 18.0572H241ZM1242.97 1C1263.4 1 1279.97 17.5655 1279.97 38H1281.97C1281.97 16.4609 1264.51 -1 1242.97 -1V1ZM305.34 104C309.661 104 313 108.353 313 113.057H315C315 107.651 311.129 102 305.34 102V104ZM906 221.057C906 216.492 907.597 210.91 910.352 206.484C913.122 202.034 916.894 199 921.151 199V197C915.881 197 911.577 200.731 908.654 205.427C905.715 210.149 904 216.095 904 221.057H906ZM358.849 199C363.106 199 366.878 202.034 369.648 206.484C372.403 210.91 374 216.492 374 221.057H376C376 216.095 374.285 210.149 371.346 205.427C368.423 200.731 364.12 197 358.849 197V199ZM967 113.057C967 108.353 970.339 104 974.66 104V102C968.871 102 965 107.651 965 113.057H967ZM1042 18.0572C1042 14.1526 1043.32 9.83665 1045.61 6.51673C1047.91 3.19617 1051.07 1 1054.74 1V-1C1050.2 -1 1046.49 1.72562 1043.97 5.38025C1041.44 9.03553 1040 13.7482 1040 18.0572H1042Z" fill="black" mask="url(#path-1-inside-1_2009_5)"/>
</mask>
<g mask="url(#mask0_2009_5)">
<rect x="-117.5" y="-14.5" width="1515" height="1046" fill="black" fill-opacity="0.2" stroke="black"/>
</g>
</svg>
